# xmcd
#
# Track frame offsets: 
#        150
#        4270
#        21397
#        44325
#        65032
#        77162
#        97035
#        112135
#        126650
#        141185
#        162670
#        182405
#        201462
#        217730
#        234757
#
# Disc length: 3415 seconds
#
# Revision: 3
# Processed by: cddbd v1.5.2PL0 Copyright (c) Steve Scherf et al.
# Submitted via: ExactAudioCopyFreeDBPlugin 1.0
#
DISCID=de0d550f
DTITLE=The Phoenix - Lyfe Jennings
DYEAR=2006
DGENRE=Soul
TTITLE0=Intro
TTITLE1=Slow Down (feat. Young Buck and Doc Black)
TTITLE2=Goodbye
TTITLE3=Let's Stay Together
TTITLE4=Biggie Nigga
TTITLE5=Ghetto Superman
TTITLE6=S.E.X. (feat. LaLa Brown)
TTITLE7=Down Here, Up There
TTITLE8=The River
TTITLE9=Still Here (feat. Three 6 Mafia and Project Pat)
TTITLE10=More Than A Girl
TTITLE11=Stingy
TTITLE12=Radio
TTITLE13=Keep Ya Head Up
TTITLE14=I'll Always Love You
EXTD=
EXTT0=
EXTT1=
EXTT2=
EXTT3=
EXTT4=
EXTT5=
EXTT6=
EXTT7=
EXTT8=
EXTT9=
EXTT10=
EXTT11=
EXTT12=
EXTT13=
EXTT14=
PLAYORDER=
